<mxfile host="app.diagrams.net" agent="Mozilla/5.0 (Windows NT 10.0; Win64; x64) AppleWebKit/537.36 (KHTML, like Gecko) Chrome/128.0.0.0 Safari/537.36 Edg/128.0.0.0" version="24.7.14">
  <diagram name="PÃ¡gina-1" id="nSagDSbDpstB3KhL1w4p">
    <mxGraphModel dx="1386" dy="781" grid="1" gridSize="10" guides="1" tooltips="1" connect="1" arrows="1" fold="1" page="1" pageScale="1" pageWidth="827" pageHeight="1169" math="0" shadow="0">
      <root>
        <mxCell id="0" />
        <mxCell id="1" parent="0" />
        <mxCell id="vYCF20Jfa3Jo7s7xmPMY-11" value="ActivoFijo" style="swimlane;fontStyle=1;align=center;verticalAlign=top;childLayout=stackLayout;horizontal=1;startSize=26;horizontalStack=0;resizeParent=1;resizeParentMax=0;resizeLast=0;collapsible=1;marginBottom=0;whiteSpace=wrap;html=1;fillColor=#f8cecc;strokeColor=#b85450;" vertex="1" parent="1">
          <mxGeometry x="90" y="510" width="160" height="202" as="geometry" />
        </mxCell>
        <mxCell id="vYCF20Jfa3Jo7s7xmPMY-12" value="- codigo: String" style="text;strokeColor=none;fillColor=none;align=left;verticalAlign=top;spacingLeft=4;spacingRight=4;overflow=hidden;rotatable=0;points=[[0,0.5],[1,0.5]];portConstraint=eastwest;whiteSpace=wrap;html=1;" vertex="1" parent="vYCF20Jfa3Jo7s7xmPMY-11">
          <mxGeometry y="26" width="160" height="24" as="geometry" />
        </mxCell>
        <mxCell id="vYCF20Jfa3Jo7s7xmPMY-25" value="- nombre: String" style="text;strokeColor=none;fillColor=none;align=left;verticalAlign=top;spacingLeft=4;spacingRight=4;overflow=hidden;rotatable=0;points=[[0,0.5],[1,0.5]];portConstraint=eastwest;whiteSpace=wrap;html=1;" vertex="1" parent="vYCF20Jfa3Jo7s7xmPMY-11">
          <mxGeometry y="50" width="160" height="24" as="geometry" />
        </mxCell>
        <mxCell id="vYCF20Jfa3Jo7s7xmPMY-26" value="- marca: String" style="text;strokeColor=none;fillColor=none;align=left;verticalAlign=top;spacingLeft=4;spacingRight=4;overflow=hidden;rotatable=0;points=[[0,0.5],[1,0.5]];portConstraint=eastwest;whiteSpace=wrap;html=1;" vertex="1" parent="vYCF20Jfa3Jo7s7xmPMY-11">
          <mxGeometry y="74" width="160" height="24" as="geometry" />
        </mxCell>
        <mxCell id="vYCF20Jfa3Jo7s7xmPMY-27" value="- modelo: String" style="text;strokeColor=none;fillColor=none;align=left;verticalAlign=top;spacingLeft=4;spacingRight=4;overflow=hidden;rotatable=0;points=[[0,0.5],[1,0.5]];portConstraint=eastwest;whiteSpace=wrap;html=1;" vertex="1" parent="vYCF20Jfa3Jo7s7xmPMY-11">
          <mxGeometry y="98" width="160" height="24" as="geometry" />
        </mxCell>
        <mxCell id="vYCF20Jfa3Jo7s7xmPMY-28" value="- anio: int" style="text;strokeColor=none;fillColor=none;align=left;verticalAlign=top;spacingLeft=4;spacingRight=4;overflow=hidden;rotatable=0;points=[[0,0.5],[1,0.5]];portConstraint=eastwest;whiteSpace=wrap;html=1;" vertex="1" parent="vYCF20Jfa3Jo7s7xmPMY-11">
          <mxGeometry y="122" width="160" height="24" as="geometry" />
        </mxCell>
        <mxCell id="vYCF20Jfa3Jo7s7xmPMY-29" value="- color: String" style="text;strokeColor=none;fillColor=none;align=left;verticalAlign=top;spacingLeft=4;spacingRight=4;overflow=hidden;rotatable=0;points=[[0,0.5],[1,0.5]];portConstraint=eastwest;whiteSpace=wrap;html=1;" vertex="1" parent="vYCF20Jfa3Jo7s7xmPMY-11">
          <mxGeometry y="146" width="160" height="24" as="geometry" />
        </mxCell>
        <mxCell id="vYCF20Jfa3Jo7s7xmPMY-30" value="- ubicacion: String" style="text;strokeColor=none;fillColor=none;align=left;verticalAlign=top;spacingLeft=4;spacingRight=4;overflow=hidden;rotatable=0;points=[[0,0.5],[1,0.5]];portConstraint=eastwest;whiteSpace=wrap;html=1;" vertex="1" parent="vYCF20Jfa3Jo7s7xmPMY-11">
          <mxGeometry y="170" width="160" height="24" as="geometry" />
        </mxCell>
        <mxCell id="vYCF20Jfa3Jo7s7xmPMY-13" value="" style="line;strokeWidth=1;fillColor=none;align=left;verticalAlign=middle;spacingTop=-1;spacingLeft=3;spacingRight=3;rotatable=0;labelPosition=right;points=[];portConstraint=eastwest;strokeColor=inherit;" vertex="1" parent="vYCF20Jfa3Jo7s7xmPMY-11">
          <mxGeometry y="194" width="160" height="8" as="geometry" />
        </mxCell>
        <mxCell id="vYCF20Jfa3Jo7s7xmPMY-16" value="ActivoBuilder" style="swimlane;fontStyle=1;align=center;verticalAlign=top;childLayout=stackLayout;horizontal=1;startSize=26;horizontalStack=0;resizeParent=1;resizeParentMax=0;resizeLast=0;collapsible=1;marginBottom=0;whiteSpace=wrap;html=1;fillColor=#dae8fc;strokeColor=#6c8ebf;" vertex="1" parent="1">
          <mxGeometry x="10" y="103" width="260" height="280" as="geometry" />
        </mxCell>
        <mxCell id="vYCF20Jfa3Jo7s7xmPMY-17" value="- activoFijo: ActivoFijo" style="text;strokeColor=none;fillColor=none;align=left;verticalAlign=top;spacingLeft=4;spacingRight=4;overflow=hidden;rotatable=0;points=[[0,0.5],[1,0.5]];portConstraint=eastwest;whiteSpace=wrap;html=1;" vertex="1" parent="vYCF20Jfa3Jo7s7xmPMY-16">
          <mxGeometry y="26" width="260" height="26" as="geometry" />
        </mxCell>
        <mxCell id="vYCF20Jfa3Jo7s7xmPMY-18" value="" style="line;strokeWidth=1;fillColor=none;align=left;verticalAlign=middle;spacingTop=-1;spacingLeft=3;spacingRight=3;rotatable=0;labelPosition=right;points=[];portConstraint=eastwest;strokeColor=inherit;" vertex="1" parent="vYCF20Jfa3Jo7s7xmPMY-16">
          <mxGeometry y="52" width="260" height="18" as="geometry" />
        </mxCell>
        <mxCell id="vYCF20Jfa3Jo7s7xmPMY-19" value="+ ActivoBuilder(codigo,nombre,precio)" style="text;strokeColor=none;fillColor=none;align=left;verticalAlign=top;spacingLeft=4;spacingRight=4;overflow=hidden;rotatable=0;points=[[0,0.5],[1,0.5]];portConstraint=eastwest;whiteSpace=wrap;html=1;" vertex="1" parent="vYCF20Jfa3Jo7s7xmPMY-16">
          <mxGeometry y="70" width="260" height="30" as="geometry" />
        </mxCell>
        <mxCell id="vYCF20Jfa3Jo7s7xmPMY-33" value="+ conMarca(marca):ActivoBuilder" style="text;strokeColor=none;fillColor=none;align=left;verticalAlign=top;spacingLeft=4;spacingRight=4;overflow=hidden;rotatable=0;points=[[0,0.5],[1,0.5]];portConstraint=eastwest;whiteSpace=wrap;html=1;" vertex="1" parent="vYCF20Jfa3Jo7s7xmPMY-16">
          <mxGeometry y="100" width="260" height="30" as="geometry" />
        </mxCell>
        <mxCell id="vYCF20Jfa3Jo7s7xmPMY-35" value="+ conModelo(marca):ActivoBuilder" style="text;strokeColor=none;fillColor=none;align=left;verticalAlign=top;spacingLeft=4;spacingRight=4;overflow=hidden;rotatable=0;points=[[0,0.5],[1,0.5]];portConstraint=eastwest;whiteSpace=wrap;html=1;" vertex="1" parent="vYCF20Jfa3Jo7s7xmPMY-16">
          <mxGeometry y="130" width="260" height="30" as="geometry" />
        </mxCell>
        <mxCell id="vYCF20Jfa3Jo7s7xmPMY-36" value="+ conAnio(anio):ActivoBuilder" style="text;strokeColor=none;fillColor=none;align=left;verticalAlign=top;spacingLeft=4;spacingRight=4;overflow=hidden;rotatable=0;points=[[0,0.5],[1,0.5]];portConstraint=eastwest;whiteSpace=wrap;html=1;" vertex="1" parent="vYCF20Jfa3Jo7s7xmPMY-16">
          <mxGeometry y="160" width="260" height="30" as="geometry" />
        </mxCell>
        <mxCell id="vYCF20Jfa3Jo7s7xmPMY-37" value="+ conColor(color):ActivoBuilder" style="text;strokeColor=none;fillColor=none;align=left;verticalAlign=top;spacingLeft=4;spacingRight=4;overflow=hidden;rotatable=0;points=[[0,0.5],[1,0.5]];portConstraint=eastwest;whiteSpace=wrap;html=1;" vertex="1" parent="vYCF20Jfa3Jo7s7xmPMY-16">
          <mxGeometry y="190" width="260" height="30" as="geometry" />
        </mxCell>
        <mxCell id="vYCF20Jfa3Jo7s7xmPMY-38" value="+ conUbicacion(ubicacion):ActivoBuilder" style="text;strokeColor=none;fillColor=none;align=left;verticalAlign=top;spacingLeft=4;spacingRight=4;overflow=hidden;rotatable=0;points=[[0,0.5],[1,0.5]];portConstraint=eastwest;whiteSpace=wrap;html=1;" vertex="1" parent="vYCF20Jfa3Jo7s7xmPMY-16">
          <mxGeometry y="220" width="260" height="30" as="geometry" />
        </mxCell>
        <mxCell id="vYCF20Jfa3Jo7s7xmPMY-39" value="+ build():ActivoFijo" style="text;strokeColor=none;fillColor=none;align=left;verticalAlign=top;spacingLeft=4;spacingRight=4;overflow=hidden;rotatable=0;points=[[0,0.5],[1,0.5]];portConstraint=eastwest;whiteSpace=wrap;html=1;" vertex="1" parent="vYCF20Jfa3Jo7s7xmPMY-16">
          <mxGeometry y="250" width="260" height="30" as="geometry" />
        </mxCell>
        <mxCell id="vYCF20Jfa3Jo7s7xmPMY-22" style="edgeStyle=orthogonalEdgeStyle;rounded=0;orthogonalLoop=1;jettySize=auto;html=1;entryX=0.5;entryY=0;entryDx=0;entryDy=0;" edge="1" parent="1" source="vYCF20Jfa3Jo7s7xmPMY-16" target="vYCF20Jfa3Jo7s7xmPMY-11">
          <mxGeometry relative="1" as="geometry" />
        </mxCell>
        <mxCell id="vYCF20Jfa3Jo7s7xmPMY-54" value="Vista" style="swimlane;fontStyle=1;align=center;verticalAlign=top;childLayout=stackLayout;horizontal=1;startSize=26;horizontalStack=0;resizeParent=1;resizeParentMax=0;resizeLast=0;collapsible=1;marginBottom=0;whiteSpace=wrap;html=1;fillColor=#e1d5e7;strokeColor=#9673a6;" vertex="1" parent="1">
          <mxGeometry x="850" y="585" width="160" height="106" as="geometry" />
        </mxCell>
        <mxCell id="vYCF20Jfa3Jo7s7xmPMY-55" value="+ listar_activos: html" style="text;strokeColor=none;fillColor=none;align=left;verticalAlign=top;spacingLeft=4;spacingRight=4;overflow=hidden;rotatable=0;points=[[0,0.5],[1,0.5]];portConstraint=eastwest;whiteSpace=wrap;html=1;" vertex="1" parent="vYCF20Jfa3Jo7s7xmPMY-54">
          <mxGeometry y="26" width="160" height="24" as="geometry" />
        </mxCell>
        <mxCell id="vYCF20Jfa3Jo7s7xmPMY-89" value="+ crear_activo: html" style="text;strokeColor=none;fillColor=none;align=left;verticalAlign=top;spacingLeft=4;spacingRight=4;overflow=hidden;rotatable=0;points=[[0,0.5],[1,0.5]];portConstraint=eastwest;whiteSpace=wrap;html=1;" vertex="1" parent="vYCF20Jfa3Jo7s7xmPMY-54">
          <mxGeometry y="50" width="160" height="24" as="geometry" />
        </mxCell>
        <mxCell id="vYCF20Jfa3Jo7s7xmPMY-90" value="+ editar_activo: html" style="text;strokeColor=none;fillColor=none;align=left;verticalAlign=top;spacingLeft=4;spacingRight=4;overflow=hidden;rotatable=0;points=[[0,0.5],[1,0.5]];portConstraint=eastwest;whiteSpace=wrap;html=1;" vertex="1" parent="vYCF20Jfa3Jo7s7xmPMY-54">
          <mxGeometry y="74" width="160" height="24" as="geometry" />
        </mxCell>
        <mxCell id="vYCF20Jfa3Jo7s7xmPMY-58" value="" style="line;strokeWidth=1;fillColor=none;align=left;verticalAlign=middle;spacingTop=-1;spacingLeft=3;spacingRight=3;rotatable=0;labelPosition=right;points=[];portConstraint=eastwest;strokeColor=inherit;" vertex="1" parent="vYCF20Jfa3Jo7s7xmPMY-54">
          <mxGeometry y="98" width="160" height="8" as="geometry" />
        </mxCell>
        <mxCell id="vYCF20Jfa3Jo7s7xmPMY-59" value="ActivoFijoService" style="swimlane;fontStyle=1;align=center;verticalAlign=top;childLayout=stackLayout;horizontal=1;startSize=26;horizontalStack=0;resizeParent=1;resizeParentMax=0;resizeLast=0;collapsible=1;marginBottom=0;whiteSpace=wrap;html=1;fillColor=#d5e8d4;strokeColor=#82b366;" vertex="1" parent="1">
          <mxGeometry x="414" y="407" width="350" height="178" as="geometry" />
        </mxCell>
        <mxCell id="vYCF20Jfa3Jo7s7xmPMY-60" value="- activos: List&amp;lt;ActivoFijo&amp;gt;" style="text;strokeColor=none;fillColor=none;align=left;verticalAlign=top;spacingLeft=4;spacingRight=4;overflow=hidden;rotatable=0;points=[[0,0.5],[1,0.5]];portConstraint=eastwest;whiteSpace=wrap;html=1;" vertex="1" parent="vYCF20Jfa3Jo7s7xmPMY-59">
          <mxGeometry y="26" width="350" height="24" as="geometry" />
        </mxCell>
        <mxCell id="vYCF20Jfa3Jo7s7xmPMY-63" value="" style="line;strokeWidth=1;fillColor=none;align=left;verticalAlign=middle;spacingTop=-1;spacingLeft=3;spacingRight=3;rotatable=0;labelPosition=right;points=[];portConstraint=eastwest;strokeColor=inherit;" vertex="1" parent="vYCF20Jfa3Jo7s7xmPMY-59">
          <mxGeometry y="50" width="350" height="8" as="geometry" />
        </mxCell>
        <mxCell id="vYCF20Jfa3Jo7s7xmPMY-75" value="+ listarActivos: List&amp;lt;ActivoFijo&amp;gt;" style="text;strokeColor=none;fillColor=none;align=left;verticalAlign=top;spacingLeft=4;spacingRight=4;overflow=hidden;rotatable=0;points=[[0,0.5],[1,0.5]];portConstraint=eastwest;whiteSpace=wrap;html=1;" vertex="1" parent="vYCF20Jfa3Jo7s7xmPMY-59">
          <mxGeometry y="58" width="350" height="24" as="geometry" />
        </mxCell>
        <mxCell id="vYCF20Jfa3Jo7s7xmPMY-76" value="+ bucarPorCodigoONombres(query): List&amp;lt;ActivoFijo&amp;gt;" style="text;strokeColor=none;fillColor=none;align=left;verticalAlign=top;spacingLeft=4;spacingRight=4;overflow=hidden;rotatable=0;points=[[0,0.5],[1,0.5]];portConstraint=eastwest;whiteSpace=wrap;html=1;" vertex="1" parent="vYCF20Jfa3Jo7s7xmPMY-59">
          <mxGeometry y="82" width="350" height="24" as="geometry" />
        </mxCell>
        <mxCell id="vYCF20Jfa3Jo7s7xmPMY-77" value="+ actualizar(codigo,ActivoFijo)" style="text;strokeColor=none;fillColor=none;align=left;verticalAlign=top;spacingLeft=4;spacingRight=4;overflow=hidden;rotatable=0;points=[[0,0.5],[1,0.5]];portConstraint=eastwest;whiteSpace=wrap;html=1;" vertex="1" parent="vYCF20Jfa3Jo7s7xmPMY-59">
          <mxGeometry y="106" width="350" height="24" as="geometry" />
        </mxCell>
        <mxCell id="vYCF20Jfa3Jo7s7xmPMY-78" value="+ eliminar(codigo)" style="text;strokeColor=none;fillColor=none;align=left;verticalAlign=top;spacingLeft=4;spacingRight=4;overflow=hidden;rotatable=0;points=[[0,0.5],[1,0.5]];portConstraint=eastwest;whiteSpace=wrap;html=1;" vertex="1" parent="vYCF20Jfa3Jo7s7xmPMY-59">
          <mxGeometry y="130" width="350" height="24" as="geometry" />
        </mxCell>
        <mxCell id="vYCF20Jfa3Jo7s7xmPMY-86" value="+ crearActivo(ActivoFijo): ActivoFijo" style="text;strokeColor=none;fillColor=none;align=left;verticalAlign=top;spacingLeft=4;spacingRight=4;overflow=hidden;rotatable=0;points=[[0,0.5],[1,0.5]];portConstraint=eastwest;whiteSpace=wrap;html=1;" vertex="1" parent="vYCF20Jfa3Jo7s7xmPMY-59">
          <mxGeometry y="154" width="350" height="24" as="geometry" />
        </mxCell>
        <mxCell id="vYCF20Jfa3Jo7s7xmPMY-79" value="ActivoFijoController" style="swimlane;fontStyle=1;align=center;verticalAlign=top;childLayout=stackLayout;horizontal=1;startSize=26;horizontalStack=0;resizeParent=1;resizeParentMax=0;resizeLast=0;collapsible=1;marginBottom=0;whiteSpace=wrap;html=1;fillColor=#fff2cc;strokeColor=#d6b656;" vertex="1" parent="1">
          <mxGeometry x="840" y="180" width="350" height="178" as="geometry" />
        </mxCell>
        <mxCell id="vYCF20Jfa3Jo7s7xmPMY-80" value="+ activoFijoService: ActivoFijoService" style="text;strokeColor=none;fillColor=none;align=left;verticalAlign=top;spacingLeft=4;spacingRight=4;overflow=hidden;rotatable=0;points=[[0,0.5],[1,0.5]];portConstraint=eastwest;whiteSpace=wrap;html=1;" vertex="1" parent="vYCF20Jfa3Jo7s7xmPMY-79">
          <mxGeometry y="26" width="350" height="24" as="geometry" />
        </mxCell>
        <mxCell id="vYCF20Jfa3Jo7s7xmPMY-81" value="" style="line;strokeWidth=1;fillColor=none;align=left;verticalAlign=middle;spacingTop=-1;spacingLeft=3;spacingRight=3;rotatable=0;labelPosition=right;points=[];portConstraint=eastwest;strokeColor=inherit;" vertex="1" parent="vYCF20Jfa3Jo7s7xmPMY-79">
          <mxGeometry y="50" width="350" height="8" as="geometry" />
        </mxCell>
        <mxCell id="vYCF20Jfa3Jo7s7xmPMY-82" value="+ listarActivos: List&amp;lt;ActivoFijo&amp;gt;" style="text;strokeColor=none;fillColor=none;align=left;verticalAlign=top;spacingLeft=4;spacingRight=4;overflow=hidden;rotatable=0;points=[[0,0.5],[1,0.5]];portConstraint=eastwest;whiteSpace=wrap;html=1;" vertex="1" parent="vYCF20Jfa3Jo7s7xmPMY-79">
          <mxGeometry y="58" width="350" height="24" as="geometry" />
        </mxCell>
        <mxCell id="vYCF20Jfa3Jo7s7xmPMY-83" value="+ bucarPorCodigoONombres(query): List&amp;lt;ActivoFijo&amp;gt;" style="text;strokeColor=none;fillColor=none;align=left;verticalAlign=top;spacingLeft=4;spacingRight=4;overflow=hidden;rotatable=0;points=[[0,0.5],[1,0.5]];portConstraint=eastwest;whiteSpace=wrap;html=1;" vertex="1" parent="vYCF20Jfa3Jo7s7xmPMY-79">
          <mxGeometry y="82" width="350" height="24" as="geometry" />
        </mxCell>
        <mxCell id="vYCF20Jfa3Jo7s7xmPMY-84" value="+ actualizar(codigo,ActivoFijo)" style="text;strokeColor=none;fillColor=none;align=left;verticalAlign=top;spacingLeft=4;spacingRight=4;overflow=hidden;rotatable=0;points=[[0,0.5],[1,0.5]];portConstraint=eastwest;whiteSpace=wrap;html=1;" vertex="1" parent="vYCF20Jfa3Jo7s7xmPMY-79">
          <mxGeometry y="106" width="350" height="24" as="geometry" />
        </mxCell>
        <mxCell id="vYCF20Jfa3Jo7s7xmPMY-85" value="+ eliminar(codigo)" style="text;strokeColor=none;fillColor=none;align=left;verticalAlign=top;spacingLeft=4;spacingRight=4;overflow=hidden;rotatable=0;points=[[0,0.5],[1,0.5]];portConstraint=eastwest;whiteSpace=wrap;html=1;" vertex="1" parent="vYCF20Jfa3Jo7s7xmPMY-79">
          <mxGeometry y="130" width="350" height="24" as="geometry" />
        </mxCell>
        <mxCell id="vYCF20Jfa3Jo7s7xmPMY-87" value="+ crearActivo(ActivoFijoRequest): ActivoFijo" style="text;strokeColor=none;fillColor=none;align=left;verticalAlign=top;spacingLeft=4;spacingRight=4;overflow=hidden;rotatable=0;points=[[0,0.5],[1,0.5]];portConstraint=eastwest;whiteSpace=wrap;html=1;" vertex="1" parent="vYCF20Jfa3Jo7s7xmPMY-79">
          <mxGeometry y="154" width="350" height="24" as="geometry" />
        </mxCell>
        <mxCell id="vYCF20Jfa3Jo7s7xmPMY-100" style="edgeStyle=orthogonalEdgeStyle;rounded=0;orthogonalLoop=1;jettySize=auto;html=1;exitX=1;exitY=0.5;exitDx=0;exitDy=0;entryX=0;entryY=0.5;entryDx=0;entryDy=0;endArrow=diamondThin;endFill=0;strokeWidth=1;endSize=32;" edge="1" parent="1" source="vYCF20Jfa3Jo7s7xmPMY-35" target="vYCF20Jfa3Jo7s7xmPMY-76">
          <mxGeometry relative="1" as="geometry" />
        </mxCell>
        <mxCell id="vYCF20Jfa3Jo7s7xmPMY-102" value="*" style="text;align=center;fontStyle=1;verticalAlign=middle;spacingLeft=3;spacingRight=3;strokeColor=none;rotatable=0;points=[[0,0.5],[1,0.5]];portConstraint=eastwest;html=1;" vertex="1" parent="1">
          <mxGeometry x="130" y="383" width="80" height="26" as="geometry" />
        </mxCell>
        <mxCell id="vYCF20Jfa3Jo7s7xmPMY-103" value="1" style="text;align=center;fontStyle=1;verticalAlign=middle;spacingLeft=3;spacingRight=3;strokeColor=none;rotatable=0;points=[[0,0.5],[1,0.5]];portConstraint=eastwest;html=1;" vertex="1" parent="1">
          <mxGeometry x="150" y="490" width="80" height="26" as="geometry" />
        </mxCell>
        <mxCell id="vYCF20Jfa3Jo7s7xmPMY-104" value="*" style="text;align=center;fontStyle=1;verticalAlign=middle;spacingLeft=3;spacingRight=3;strokeColor=none;rotatable=0;points=[[0,0.5],[1,0.5]];portConstraint=eastwest;html=1;" vertex="1" parent="1">
          <mxGeometry x="250" y="250" width="80" height="26" as="geometry" />
        </mxCell>
        <mxCell id="vYCF20Jfa3Jo7s7xmPMY-106" style="edgeStyle=orthogonalEdgeStyle;rounded=0;orthogonalLoop=1;jettySize=auto;html=1;exitX=0;exitY=0.5;exitDx=0;exitDy=0;entryX=0.5;entryY=0;entryDx=0;entryDy=0;" edge="1" parent="1" source="vYCF20Jfa3Jo7s7xmPMY-83" target="vYCF20Jfa3Jo7s7xmPMY-59">
          <mxGeometry relative="1" as="geometry" />
        </mxCell>
        <mxCell id="vYCF20Jfa3Jo7s7xmPMY-108" style="edgeStyle=orthogonalEdgeStyle;rounded=0;orthogonalLoop=1;jettySize=auto;html=1;exitX=0.5;exitY=0;exitDx=0;exitDy=0;entryX=0.5;entryY=1.039;entryDx=0;entryDy=0;entryPerimeter=0;" edge="1" parent="1" source="vYCF20Jfa3Jo7s7xmPMY-54" target="vYCF20Jfa3Jo7s7xmPMY-87">
          <mxGeometry relative="1" as="geometry" />
        </mxCell>
        <mxCell id="vYCF20Jfa3Jo7s7xmPMY-112" value="*" style="text;align=center;fontStyle=1;verticalAlign=middle;spacingLeft=3;spacingRight=3;strokeColor=none;rotatable=0;points=[[0,0.5],[1,0.5]];portConstraint=eastwest;html=1;" vertex="1" parent="1">
          <mxGeometry x="890" y="559" width="30" height="26" as="geometry" />
        </mxCell>
        <mxCell id="vYCF20Jfa3Jo7s7xmPMY-113" value="*" style="text;align=center;fontStyle=1;verticalAlign=middle;spacingLeft=3;spacingRight=3;strokeColor=none;rotatable=0;points=[[0,0.5],[1,0.5]];portConstraint=eastwest;html=1;" vertex="1" parent="1">
          <mxGeometry x="790" y="250" width="50" height="26" as="geometry" />
        </mxCell>
        <mxCell id="vYCF20Jfa3Jo7s7xmPMY-114" value="1" style="text;align=center;fontStyle=1;verticalAlign=middle;spacingLeft=3;spacingRight=3;strokeColor=none;rotatable=0;points=[[0,0.5],[1,0.5]];portConstraint=eastwest;html=1;" vertex="1" parent="1">
          <mxGeometry x="530" y="383" width="80" height="26" as="geometry" />
        </mxCell>
        <mxCell id="vYCF20Jfa3Jo7s7xmPMY-115" value="1" style="text;align=center;fontStyle=1;verticalAlign=middle;spacingLeft=3;spacingRight=3;strokeColor=none;rotatable=0;points=[[0,0.5],[1,0.5]];portConstraint=eastwest;html=1;" vertex="1" parent="1">
          <mxGeometry x="980" y="360" width="30" height="26" as="geometry" />
        </mxCell>
      </root>
    </mxGraphModel>
  </diagram>
</mxfile>
